<svg width="137" height="98" viewBox="0 0 137 98" fill="none" xmlns="http://www.w3.org/2000/svg">
<g clip-path="url(#clip0_258_11)">
<path d="M136.75 61.9L136.58 55.81L136.49 45.95C136.31 43.97 136.77 44.08 136.13 41.59L136.15 34.63C136.15 31.42 134.54 28.26 132.71 26.06C132.87 24.9 131.98 23.21 131.15 22.3L125.44 15.95C123.16 13.41 119.95 12.36 117.12 10.74C108.5 5.81003 101.73 2.98003 91.6 1.79003C85.88 1.12003 80.05 -0.0399686 74.27 3.14027e-05L63.69 0.0800314C53.34 0.160031 46.09 1.63003 36.33 4.65003C28.83 6.97003 23.79 9.75003 17.16 13.46C14.27 15.08 11.94 17.13 9.38004 19.17C6.77004 21.25 4.33004 23.02 2.71004 26.08C0.250044 30.76 -0.269956 35 0.110044 40.2L0.450044 44.78L0.710044 51.7L1.08004 65.1C1.16004 68.08 1.29004 71.04 0.870044 73.93L5.92004 79.08C7.27004 80.46 10.04 81.08 10.94 82.92L12.98 83.93L14.86 84.23L24.16 89.26C32.7 93.87 43.36 96.88 53.33 96.54C55.77 96.46 59.59 96.75 61.5 97.4C61.96 97.56 62.89 98.04 63.25 97.74L64.6 97.79C67 95.79 70.78 97.58 73.65 97.42L85.7 96.78C99.68 96.03 104.82 90.8 111.63 89.09C112.17 88.95 113.51 88.65 113.83 88.22C114.1 87.86 114.83 87.58 115.21 87.38C121.36 84.64 128.21 80.55 133 75.47L135.56 74.63L135.84 71.66C135.93 70.68 136.25 69.73 136.77 68.89L136.73 61.9H136.75ZM2.94004 32.7C3.59004 29.34 4.75004 25.62 7.69004 23.5C10.07 21.78 12.18 20.02 14.53 18.08C18.76 14.6 23.55 11.84 28.72 10.03C33.77 8.27003 38.36 6.20003 43.35 4.91003C47.25 3.90003 51.26 3.45003 55.3 2.84003C60.33 2.07003 65.25 2.60003 70.12 2.44003C74.12 2.31003 78.14 2.49003 82.09 3.10003C87.33 3.91003 92.69 4.25003 97.75 5.78003L103.97 7.65003C106.36 8.37003 109.06 9.45003 111.21 10.65L121.21 16.25C122.17 16.79 123.75 18.48 124.48 19.25L127 21.88C127.96 22.88 129.66 24.44 129.77 25.93C129.83 26.81 130.33 27.59 130.95 28.22C135.57 32.94 134.78 39.08 131.46 45.45C127.24 53.55 120.48 59.05 112.24 62.65L103.21 66.6C98.92 68.48 94.73 69.79 89.77 70.39C86.21 70.82 82.67 71.48 79.24 71.38C69.08 71.1 59.52 68.85 49.71 66.76L41.13 64.93L32.63 62.91L26.29 61.23C21.2 59.89 14.31 56.15 10.18 52.82C4.00004 47.84 1.41004 40.53 2.94004 32.67V32.7ZM80.2 94.04C76.48 94.41 72.92 94.37 69.24 94.35L63.7 94.32C62.76 94.32 62.41 91.89 62.44 90.99L62.58 86C62.68 82.61 62.01 79.74 61.5 76.28C61.32 75.05 59.81 73.21 58.89 72.4C59.32 74.36 59.58 75.72 59.78 77.55L60.56 84.46L61 93.91C57.32 93.95 53.58 94.07 49.95 93.75L45.07 93.32L44.19 85.55C43.7 81.2 43.99 76.83 43.07 72.79L42.2 68.95L40.57 69.58C39.69 69.92 41.46 74.77 41.51 75.59L42.56 92.25C40.98 92.58 39.6 92.35 38.07 91.83L30.61 89.28C26.46 87.86 28.79 85.13 26.93 81.92L25.22 65.2L24.02 64.4C23.65 64.16 23.25 65.61 23.23 66.04L25.41 86.19L21.41 84.49C18.51 83.25 15.77 81.66 13.41 79.39C13.69 72.42 13.22 65.64 12.21 58.86C11.65 58.76 10.85 58.76 10.54 58.99C10.15 59.28 9.79004 60.55 9.93004 61.12C11.43 66.99 11.99 73.25 11.31 79.25L9.31004 77.76C5.10004 75.99 4.28004 72.65 4.13004 68.53L3.86004 61.57C3.71004 57.57 3.44004 53.81 3.45004 50.07C6.69004 53.13 9.03004 55.97 12.52 57.97C15.63 59.75 18.77 61.63 22.25 62.78C28.8 64.95 35.46 66.28 42.25 68.13L49.47 69.47C53.63 70.24 57.53 71.52 61.73 72.18C68.66 73.27 75.03 74.13 82.3 74.22C82.86 75.39 82.42 77.65 82.6 78.96L83.17 82.97L84.37 93.62L80.18 94.04H80.2ZM134.88 59.28L134.18 70.32C132.62 72.32 130.56 74.34 128.25 76.25C129 72.84 129.06 69.38 128.57 65.91C128.4 64.67 128.18 62.26 126.74 61.67C126.39 62.96 126.74 64.36 126.79 65.66C126.85 66.98 126.94 68.29 127.05 69.6C127.17 71.01 127.1 74.23 127.26 75.64C127.26 76.31 127.33 76.64 127.49 76.86C123.05 80.39 117.76 83.46 113.16 85.14L112.57 76.45L111.78 70.63C111.72 70.17 110.69 69.46 110.26 69.43C108.87 69.33 110.41 75.43 110.79 81.48L111.09 86.16L97.9 91.69L92.55 93.22C90.9 93.69 88.71 93.46 86.48 93.48L85.26 81.04L84.72 73.94C88.33 73.12 92.31 73.17 95.85 72.15C99.83 71.01 103.69 69.63 107.43 67.91L113.21 65.24L122.25 60.31L125.17 57.68C128.09 55.05 131.93 51.15 134.16 47.5C135.24 52.4 135.23 54.42 134.86 59.29L134.88 59.28Z" fill="black"/>
</g>
<defs>
<clipPath id="clip0_258_11">
<rect width="136.78" height="97.83" fill="white"/>
</clipPath>
</defs>
</svg>
