<svg width="259" height="283" viewBox="0 0 259 283" fill="none" xmlns="http://www.w3.org/2000/svg">
<g clip-path="url(#clip0_272_25022)">
<path d="M55.2549 40.6028L54.6574 37.6906C53.7175 33.1143 53.469 28.5715 52.0323 24.0355L49.5079 16.0638C48.3598 12.4337 47.8697 9.44765 45.2647 5.61617C43.9421 3.67023 42.6195 3.81785 40.7396 3.86482C37.6579 3.94534 36.765 5.13975 35.0463 7.15279L31.7699 10.9776C29.608 13.5006 30.4338 16.0169 29.6752 15.9632L27.1306 15.7753C26.0631 18.513 24.7942 21.385 23.2567 23.9348C22.5451 28.1085 21.0546 31.7454 19.4567 35.6709C18.6913 37.5497 18.4362 40.0392 17.832 41.8509L15.5627 48.6147L14.3609 51.4397C14.2535 53.2581 14.757 55.4322 12.4139 56.6333C12.0715 55.1236 12.058 53.54 12.4542 52.0771L14.522 44.4209L18.2751 32.1883C19.3828 28.5783 20.3832 25.1695 22.1892 21.7406C23.8946 18.4996 25.4387 15.2251 27.3925 12.2055C28.3123 10.7763 29.6282 9.52146 30.2526 7.81709C30.924 5.97851 31.7095 3.65681 33.0388 2.62345C35.6572 0.583564 38.242 -0.537029 41.4311 0.274897L46.0167 1.44246C48.4068 4.07954 50.0383 6.75689 51.5489 9.86368C51.0386 11.9908 51.2938 14.0038 52.8312 15.5807L55.1878 23.8208L56.4836 28.699C57.4638 32.3896 57.833 36.0198 58.4104 39.7976L59.5518 47.2056L60.109 50.6479C60.5119 53.1508 60.8341 56.3247 60.0688 58.6262C60.0486 59.257 60.6596 60.7668 60.6529 61.4244L60.6394 69.8456L60.9348 74.7373L60.861 79.3673C61.5122 80.8771 61.4451 82.2526 61.3712 83.9436L61.1094 89.6271L60.7737 95.116C58.9341 92.5258 58.0076 93.8209 57.8129 90.0297L57.3966 81.9373L57.1415 72.1069L56.8931 66.8797L56.6313 56.9688L56.1814 46.8365L55.2616 40.5961L55.2549 40.6028Z" fill="black"/>
<path d="M11.6821 59.2372C13.4948 60.7134 11.5277 65.6118 10.5071 65.122C10.1916 64.9676 9.86262 64.0752 9.9969 63.7128L11.6821 59.2305V59.2372Z" fill="black"/>
<path d="M252.615 183.14L248.741 179.013C244.089 174.054 237.476 169.927 235.186 165.492L231.923 159.178C231.05 157.48 230.298 156.366 227.935 156.943C227.257 157.111 226.075 157.527 225.814 158.097C225.592 158.587 225.733 159.976 226.015 160.453L230.144 167.498C229.62 173.799 223.564 178.845 218.697 177.275L216.931 176.705C216.555 176.584 216.475 175.316 216.609 174.933L219.932 165.593L220.255 162.244C220.523 159.453 222.114 157.46 224.941 156.567L224.994 152.884C225.035 150.334 221.497 150.783 219.764 151.146C216.072 151.911 213.098 153.836 212.876 158.064L212.507 165.123L211.587 170.618C211.506 173.799 210.029 176.47 206.491 177.369C204.309 177.926 202.745 174.9 203.047 172.585L201.758 167.686C203.181 164.425 202.248 161.526 201.321 158.587V155.252C201.342 151.394 199.489 148.348 197.877 148.394C197.273 148.415 196.159 148.824 195.36 149.066L196.407 146.932C195.662 145.764 193.386 145.019 192.667 145.986C190.559 148.817 187.498 149.609 186.108 157.48L185.282 162.13L181.18 153.293C181.18 152.394 181.247 150.663 180.871 149.723C180.435 148.629 177.031 148.488 176.534 149.609L172.472 158.742C173.889 161.526 173.244 164.928 172.533 167.908C171.875 170.652 172.257 174.108 170.23 176.396C167.034 180.006 161.025 180.462 156.708 178.436C155.728 177.221 154.828 176.289 153.351 175.128C152.512 174.47 152.438 172.309 152.156 171.149C151.256 167.431 150.994 163.982 152.532 160.459L151.968 157.916C153.223 153.239 153.962 148.408 152.801 143.563L153.955 138.819C151.814 135.793 155.332 134.364 153.861 132.263C152.787 130.733 150.451 130.868 148.215 131.888C145.536 134.706 146.698 137.571 145.335 140.242L145.899 150.153L145.818 168.746L142.743 175.074C141.34 177.953 137.406 180.335 134.378 178.932C132.78 178.194 131.289 176.262 129.906 175.248C127.845 173.732 126.261 172.041 127.086 169.223L125.348 168.277C124.119 164.854 124.045 160.889 124.663 157.413L123.025 155.984C122.669 155.675 123.414 154.299 123.508 153.823L124.455 149.233L126.664 139.732L127.885 133.793L128.725 125.754L129.161 122.326L129.806 112.609L130.289 105.57C130.074 102.262 130.088 99.1018 130.504 95.7602C129.456 92.8815 128.866 89.7412 129.604 86.6612L127.865 81.481L126.14 72.4626L123.924 65.1351C123.139 62.545 118.647 62.6457 116.687 64.1622C116.385 65.7055 116.042 67.5776 116.21 68.9867C116.579 72.1271 116.653 74.8715 116.599 77.9582L116.438 87.2584L115.868 99.1757L115.713 104.671L116.15 114.28L116.432 123.473L116.7 127.385L117.848 141.188L118.674 151.119C118.808 152.736 118.076 154.252 117.553 155.729C115.592 161.244 112.215 165.311 107.636 168.907L104.535 171.343C102.259 173.135 98.2304 175.007 95.4307 175.302C90.4155 177.537 85.078 176.946 80.4253 173.913C78.7468 173.98 77.968 173.155 76.8602 172.222C75.9404 171.444 74.9669 170.84 74.6983 169.652C74.0135 166.633 71.2071 166.076 71.6973 165.64C71.8651 165.492 72.5029 164.948 72.5902 164.74C72.9125 163.942 71.6234 162.372 70.7036 161.882L71.4958 159.305C69.2064 157.608 68.8774 154.387 70.0792 152.132C69.2534 150.824 68.676 149.072 68.5015 147.16L67.9576 141.362C67.0916 132.169 68.8372 123.882 70.8647 114.998L75.0542 96.6795L75.9404 91.6603L77.4107 82.6016L78.5588 76.2538L80.2574 59.3845L80.6938 54.1641C81.2443 47.5479 81.7277 42.5622 80.3044 35.8991C78.9885 29.7593 80.8818 23.2706 76.4238 20.9959C75.7658 20.6603 73.9934 20.3383 73.5704 20.8214L72.0531 22.5794C70.0591 24.881 69.005 30.4236 69.4414 33.98C69.7234 36.2681 69.2131 38.3885 67.9039 40.0459C69.569 43.2198 66.8566 46.6219 66.8834 52.8824C66.8834 53.9024 66.3933 54.882 66.1449 55.9087C64.5672 62.5048 65.0841 67.591 64.4396 69.6443C63.2512 73.4154 64.3255 77.0859 64.0368 80.7899C63.8823 82.7761 63.4124 84.8696 63.4057 86.9229L63.3922 91.5127L63.3519 102.913L63.6809 115.87L63.7346 124.486C63.8756 125.097 64.2113 126.66 63.9965 127.284L60.3374 138.054L57.7862 146.153L55.6445 151.515L53.214 157.306C51.69 159.714 50.8105 161.566 49.4677 164.016L47.3059 167.961L45.144 171.739L41.1761 177.147C38.8061 180.382 36.1676 183.274 32.5354 185.039C29.2456 186.636 25.8216 188.555 21.9477 188.132C18.3893 187.743 14.8243 186.602 12.8101 183.918L8.82881 178.61L7.1235 173.759L5.17648 166.431L4.2164 161.023L3.4376 150.092L3.49802 146.549L3.3906 139.926L3.35703 137.034L3.38389 131.371C4.12241 131.203 5.29062 130.378 4.96835 130.056L3.70615 128.814L3.86057 121.715C3.98813 115.723 4.97507 109.952 5.46518 104.034L5.85458 99.3367L6.45211 95.0019L7.83516 87.4396C8.02315 86.3995 8.191 85.8091 8.25814 84.8495L8.57369 80.2329C8.85567 76.1666 10.5476 74.3146 10.4871 71.7245L10.3864 67.2622C9.23836 68.1614 8.65425 68.9465 8.37227 70.2281L7.14364 75.7841L6.56625 78.797C6.09628 81.2395 5.46518 83.7558 5.25705 86.1647C4.82736 91.1436 4.33725 95.834 3.47788 100.712C2.34324 107.167 1.57115 113.629 1.12803 120.145L0.483504 129.68C0.355941 131.565 1.36302 133.579 0.369369 135.759C-0.181166 136.96 0.0739598 138.423 0.134384 139.718L0.731917 152.796L0.711775 156.151C0.691634 159.607 1.22874 163.15 1.645 166.666C1.98741 169.538 2.80649 172.048 3.65244 174.806L5.12949 179.603C6.61324 182.885 8.94295 186.146 11.6755 188.575C17.436 193.681 28.5474 193.258 35.3351 188.508L39.3567 185.689L43.1634 181.878C46.4129 178.624 48.5345 174.363 50.8441 170.363L54.6038 163.848L57.7727 157.171L59.5855 153.199L61.1431 148.656L62.694 144.12C63.0095 143.194 63.9898 141.718 64.6477 140.678C65.4534 144.355 65.5675 147.395 65.8495 150.783L66.3665 156.977L68.7163 168.995L71.9524 174.282C78.8609 179.281 88.5826 182.744 96.5385 179.798L102.373 177.637C105.629 176.429 108.153 174.584 110.678 172.122L114.639 168.256L117.694 164.626L120.265 161.546L122.528 171.202C123.004 173.235 124.159 175.779 125.314 177.758C125.871 178.711 127.671 179.993 128.543 180.898C131.39 183.858 137.345 184.824 141.481 182.455C144.583 180.677 146.53 178.51 147.873 174.759C148.974 176.362 149.746 178.167 150.666 178.852L155.191 182.22C157.064 183.616 158.984 184.213 161.354 184.126L167.638 183.891C171.901 182.247 173.405 178.939 175.748 178.483C176.608 178.315 177.494 177.979 177.776 177.523C178.924 175.638 174.486 174.577 176.48 170.914L178.179 167.793C179.367 166.498 179.81 165.821 180.697 163.949C182.321 166.009 183.328 170.786 182.738 172.933L181.643 176.919C179.945 179.697 178.884 183.026 178.964 186.293C177.628 188.327 176.836 190.554 176.326 192.997C175.762 195.386 174.788 197.184 173.855 199.405L171.687 204.538L170.109 209L168.625 213.04L165.449 221.206L165.792 226.541C167.967 224.588 169.001 221.602 170.122 218.757L174.52 207.611L178.776 196.399L180.394 192.42L182.14 186.387L184.967 179.194L185.336 175.826L188.511 180.804C189.666 182.616 192.271 183.636 194.514 183.381C198.925 182.878 200.308 178.959 201.274 179.61L203.121 180.851C204.41 181.717 207.807 182.113 209.157 181.469L214.118 179.093C219.597 184.22 223.128 182.308 229.419 178.684C230.762 177.912 231.681 175.638 232.527 174.369L234.421 171.551L237.596 174.799L239.953 176.302L242.739 178.671C245.465 181.777 248.003 184.408 251.434 186.642L254.596 188.702C255.952 189.588 257.496 190.011 259 188.843L252.622 183.099L252.615 183.14ZM70.5358 99.3837C70.5022 100.887 70.4418 101.551 69.9718 102.853C68.6492 106.543 68.0919 110.013 66.9573 114.139C66.306 110.724 66.1651 107.751 66.2792 104.349L66.5075 97.5182L66.1315 89.5399L66.9439 77.1194L67.3064 71.6104C67.3803 70.5099 67.6891 69.329 68.2463 68.4365C67.622 66.2691 67.5615 63.5851 69.3206 61.5788L69.9114 56.7475C68.7432 54.2714 68.723 51.7752 70.1329 49.4468L71.9255 46.4877C71.7912 45.0785 71.8852 43.7902 72.8789 42.6293C72.6238 40.2808 73.1005 37.7242 75.363 36.2144C77.0616 33.7921 75.269 31.3362 77.8606 29.9941C79.9754 35.0871 77.5584 40.1466 78.297 46.3266C77.5652 48.078 77.5383 49.7756 78.0486 51.5538C77.1623 55.6537 76.8333 59.6999 76.3634 63.8334L75.7793 68.9599L74.6111 77.4013C74.4231 78.7366 73.9128 80.3269 73.5503 81.3804C73.6107 88.3254 70.6499 94.6195 70.5425 99.3702L70.5358 99.3837ZM123.528 133.887L121.729 142.221C120.977 141.215 121.158 140.503 121.051 139.275L119.95 126.419L120.54 124.634C119.473 122.547 118.949 120.393 119.238 118.018L119.862 112.824C120.238 109.67 117.808 106.449 120.171 103.611C120.366 103.383 119.419 102.96 118.808 102.672L119.493 92.6333L120.822 83.7289L121.742 79.1929C121.823 78.7903 122.373 77.9783 122.716 77.824C123.145 77.6294 123.736 78.8708 123.723 79.3942C123.609 82.5345 125.401 85.3326 125.562 88.2851L126.382 102.839L126.294 108.355L125.2 120.319L124.206 129.653L123.535 133.887H123.528ZM196.535 175.034C196.373 176.04 195.004 177.993 193.909 178.295C191.734 178.885 190.74 176.752 190.848 175.108L187.095 171.162L188.72 165.559L190.606 159.017C190.855 158.151 192.593 156.621 192.614 155.715C192.218 153.662 192.332 150.971 194.816 150.132C195.125 150.522 195.581 151.917 195.608 152.548L195.964 161.667C196.058 163.996 197.81 167.015 197.434 169.37L196.528 175.027L196.535 175.034Z" fill="black"/>
<path d="M156.6 241.343L158.923 239.8C159.091 238.042 159.81 236.445 160.353 234.667L162.186 228.675C162.475 227.735 164.529 226.903 165.832 227.373C166.329 228.125 165.684 229.728 165.254 230.715L159.863 243.162C158.608 243.35 157.231 242.404 156.6 241.343Z" fill="black"/>
<path d="M147.664 271.787C146.409 271.76 145.16 271.566 144.106 271.156C144.885 266.855 147.718 265.258 148.336 262.192C148.792 261.896 150.665 262.017 151.458 262.366C150.524 266.05 149.37 268.781 147.671 271.794L147.664 271.787Z" fill="black"/>
<path d="M207.565 129.365C206.82 128.271 206.223 127.815 204.893 127.184C204.719 126.204 206.592 124.923 207.861 124.99L210.385 125.124C211.083 125.721 211.11 127.54 210.56 128.533C210.13 129.298 208.183 129.928 207.565 129.358V129.365Z" fill="black"/>
<path d="M141.279 283C139.48 282.98 139.668 280.598 140.239 279.558C140.709 278.692 141.239 277.853 141.763 277.437C142.226 277.068 143.824 277.363 144.119 277.92C144.24 279.551 142.83 282.899 141.279 283Z" fill="black"/>
<path d="M156.191 250.778L155.358 252.576C155.197 252.925 153.7 252.516 153.928 252.207L154.949 250.879C155.197 250.556 154.499 249.812 154.116 249.329C153.834 248.98 153.969 247.685 154.405 247.591L156.426 247.175C156.789 247.101 157.762 247.55 158.01 247.825C158.877 248.758 156.674 249.724 156.191 250.771V250.778Z" fill="black"/>
<path d="M153.049 257.837L151.78 258.166L150.168 255.931C151.357 253.999 153.351 254.086 155.056 254.838L154.694 256.951C154.613 257.428 153.666 257.669 153.049 257.83V257.837Z" fill="black"/>
</g>
<defs>
<clipPath id="clip0_272_25022">
<rect width="259" height="283" fill="white"/>
</clipPath>
</defs>
</svg>
